# xmcd
#
# Track frame offsets:
#  150
#  24747
#  44852
#  60227
#  84565
#  98162
#  116160
#  132230
#  149665
#  166805
#  187485
#  202817
#
# Disc length: 3004 seconds
#
# Revision: 0
# Processed by: cddbd v1.5.1PL2 Copyright (c) Steve Scherf et al.
# Submitted via: Collectorz.com_Music_Collector 6.9
#
DISCID=b20bba0c
DTITLE=Nia - Secrets of Life
DYEAR=2002
DGENRE=Contemporary Christian
TTITLE0=Land Of My Fathers
TTITLE1=Message In A Bottle
TTITLE2=Revive Me
TTITLE3=Secrets Of Life
TTITLE4=Why Should I Worry?
TTITLE5=Jesus Christ Is Lord
TTITLE6=Jonah
TTITLE7=Narrow Little Gate
TTITLE8=Apple
TTITLE9=The Prayer
TTITLE10=I'm Not Alone
TTITLE11=Home
EXTD=
EXTT0=
EXTT1=
EXTT2=
EXTT3=
EXTT4=
EXTT5=
EXTT6=
EXTT7=
EXTT8=
EXTT9=
EXTT10=
EXTT11=
PLAYORDER=
